<?xml version="1.0" encoding="UTF-8"?>
<svg id="Camada_1" data-name="Camada 1" xmlns="http://www.w3.org/2000/svg" xmlns:xlink="http://www.w3.org/1999/xlink" viewBox="0 0 158.14 132.56">
  <defs>
    <style>
      .cls-1 {
        stroke: #02498a;
        stroke-width: 2.13px;
      }

      .cls-1, .cls-2, .cls-3 {
        fill: none;
      }

      .cls-2 {
        stroke: #068bca;
        stroke-width: .53px;
      }

      .cls-4, .cls-5 {
        fill: #02498a;
      }

      .cls-6 {
        fill: #068bca;
      }

      .cls-6, .cls-7, .cls-8, .cls-5 {
        fill-rule: evenodd;
      }

      .cls-7 {
        fill: #098bc9;
      }

      .cls-9 {
        clip-path: url(#clippath-1);
      }

      .cls-8 {
        fill: #048bca;
      }

      .cls-10 {
        clip-path: url(#clippath-2);
      }

      .cls-11 {
        clip-path: url(#clippath);
      }
    </style>
    <clipPath id="clippath">
      <rect class="cls-3" x=".4" width="157.33" height="132.56"/>
    </clipPath>
    <clipPath id="clippath-1">
      <rect class="cls-3" x=".4" width="157.33" height="132.56"/>
    </clipPath>
    <clipPath id="clippath-2">
      <rect class="cls-3" x=".4" width="157.33" height="132.56"/>
    </clipPath>
  </defs>
  <path class="cls-5" d="M13.51,83.56h-3.42c-.16,0-.31.07-.42.17-.11.11-.17.25-.17.41v23.38c0,.16.07.3.17.41.11.11.26.17.42.17h3.42c.16,0,.31-.06.42-.17.11-.1.17-.25.17-.41v-23.38c0-.16-.07-.3-.17-.41-.11-.1-.26-.17-.42-.17h0ZM13.51,83.56"/>
  <path class="cls-6" d="M35.97,107.51v-21.87l-4.61,6.46v15.41c0,.16.07.31.18.41.11.1.25.17.42.17h3.43c.16,0,.31-.07.42-.17.11-.11.18-.25.18-.41h0ZM35.97,107.51"/>
  <path class="cls-6" d="M24.31,98.31l-9.01-12.87v6.21l4.18,5.97c.18.26.45.49.75.67.28.16.56.27.79.27h3.43c-.02-.07-.07-.15-.13-.25h0ZM24.31,98.31"/>
  <path class="cls-6" d="M36,83.58h-3.43c-.22,0-.5.1-.78.27-.3.18-.57.42-.75.68l-7.6,11,1.76,2.55c.12.18.22.36.28.53.23-.16.43-.35.57-.56l9.82-14.22c.07-.1.11-.18.13-.25h0ZM36,83.58"/>
  <path class="cls-5" d="M157.07,95.84c.27,16.26-23.87,16.26-23.6,0-.25-16.3,23.85-16.3,23.6,0h0ZM153.75,95.84c.49-12.62-17.45-12.6-16.97,0-.49,12.56,17.47,12.57,16.97,0h0ZM153.75,95.84"/>
  <path class="cls-5" d="M115.95,107.8h-2.5c-.29,0-.52-.07-.7-.22-.18-.14-.31-.33-.4-.55l-2.24-5.78h-10.74l-2.24,5.78c-.08.2-.21.38-.4.53-.19.16-.42.23-.7.23h-2.5l9.57-23.95h3.29l9.57,23.95ZM100.27,98.93h8.93l-3.76-9.75c-.25-.6-.49-1.35-.72-2.25-.12.45-.24.87-.36,1.26-.11.39-.23.73-.34,1.01l-3.76,9.73ZM100.27,98.93"/>
  <path class="cls-1" d="M115.95,107.8h-2.5c-.29,0-.52-.07-.7-.22-.18-.14-.31-.33-.4-.55l-2.24-5.78h-10.74l-2.24,5.78c-.08.2-.21.38-.4.53-.19.16-.42.23-.7.23h-2.5l9.57-23.95h3.29l9.57,23.95ZM100.27,98.93h8.93l-3.76-9.75c-.25-.6-.49-1.35-.72-2.25-.12.46-.24.87-.36,1.26-.11.39-.23.73-.34,1.01l-3.76,9.73ZM100.27,98.93"/>
  <path class="cls-5" d="M81.6,95.83c0,1.8-.28,3.43-.85,4.9-.57,1.47-1.37,2.73-2.41,3.78-1.04,1.05-2.28,1.85-3.73,2.43-1.45.57-3.05.86-4.81.86h-8.95v-23.95h8.95c1.76,0,3.36.29,4.81.86,1.45.57,2.69,1.38,3.73,2.44,1.04,1.05,1.84,2.32,2.41,3.78.57,1.47.85,3.1.85,4.89h0ZM78.27,95.83c0-1.46-.2-2.78-.6-3.93-.4-1.16-.97-2.14-1.7-2.93-.73-.8-1.63-1.41-2.67-1.84-1.05-.42-2.21-.64-3.49-.64h-5.7v18.67h5.7c1.28,0,2.44-.21,3.49-.64,1.04-.42,1.94-1.03,2.67-1.83.73-.8,1.3-1.77,1.7-2.93.4-1.16.6-2.47.6-3.94h0ZM78.27,95.83"/>
  <path class="cls-1" d="M81.6,95.83c0,1.8-.28,3.43-.85,4.9-.57,1.47-1.37,2.73-2.41,3.78-1.04,1.05-2.28,1.85-3.73,2.43-1.45.57-3.05.86-4.81.86h-8.95v-23.95h8.95c1.76,0,3.36.29,4.81.86,1.45.57,2.69,1.38,3.73,2.44,1.04,1.05,1.84,2.32,2.41,3.78.57,1.47.85,3.1.85,4.89h0ZM78.27,95.83c0-1.46-.2-2.78-.6-3.93-.4-1.16-.97-2.14-1.7-2.93-.73-.8-1.63-1.41-2.67-1.84-1.05-.42-2.21-.63-3.49-.63h-5.7v18.67h5.7c1.28,0,2.44-.21,3.49-.64,1.04-.42,1.94-1.03,2.67-1.83.73-.8,1.3-1.77,1.7-2.93.4-1.16.6-2.47.6-3.94h0ZM78.27,95.83"/>
  <path class="cls-5" d="M133.07,83.82v2.74h-7.73v21.23h-3.24v-21.23h-7.77v-2.74h18.74ZM133.07,83.82"/>
  <path class="cls-1" d="M133.07,83.82v2.74h-7.73v21.23h-3.24v-21.23h-7.77v-2.74h18.74ZM133.07,83.82"/>
  <rect class="cls-4" x="86.61" y="83.85" width="3.24" height="23.95"/>
  <rect class="cls-1" x="86.61" y="83.85" width="3.24" height="23.95"/>
  <path class="cls-5" d="M56.2,83.85v2.64h-11.49v7.95h9.3v2.54h-9.3v8.18h11.49v2.64h-14.75v-23.95h14.75ZM56.2,83.85"/>
  <path class="cls-1" d="M56.2,83.85v2.64h-11.49v7.95h9.3v2.54h-9.3v8.18h11.49v2.64h-14.75v-23.95h14.75ZM56.2,83.85"/>
  <rect class="cls-4" x="1.06" y="83.85" width="3.24" height="23.95"/>
  <path class="cls-7" d="M10.51,117.61c-.07.11-.14.2-.22.26-.08.06-.18.09-.3.09-.13,0-.28-.07-.46-.2-.17-.13-.39-.28-.66-.44-.27-.16-.59-.3-.96-.43-.38-.13-.83-.2-1.37-.2-.5,0-.95.07-1.33.2-.39.14-.71.32-.97.55-.26.23-.46.5-.59.82-.13.32-.2.66-.2,1.02,0,.46.12.85.34,1.15.23.31.53.57.91.79s.8.4,1.28.56c.48.16.96.33,1.46.5.5.17.99.36,1.46.57.48.21.9.48,1.28.81.37.32.68.72.91,1.2.23.47.34,1.05.34,1.74,0,.73-.12,1.41-.37,2.05-.25.64-.61,1.2-1.08,1.67-.48.47-1.06.84-1.75,1.12-.69.27-1.48.41-2.37.41-1.07,0-2.05-.2-2.94-.59-.89-.39-1.64-.92-2.27-1.59l.65-1.07c.06-.09.14-.16.23-.22.09-.06.18-.09.29-.09.16,0,.35.09.56.26.21.17.47.36.79.57.31.21.69.4,1.14.58.44.17.99.26,1.63.26.53,0,1.01-.07,1.43-.22.42-.15.77-.36,1.06-.62.29-.27.51-.59.66-.96.16-.37.23-.79.23-1.24,0-.5-.11-.92-.34-1.24-.23-.32-.53-.59-.9-.81-.37-.22-.79-.4-1.27-.55-.48-.15-.96-.3-1.46-.46-.5-.16-.99-.34-1.46-.55-.48-.21-.9-.48-1.27-.81-.37-.33-.67-.75-.9-1.25-.23-.5-.34-1.12-.34-1.85,0-.59.12-1.16.34-1.71.23-.55.56-1.04.99-1.46.43-.43.97-.77,1.61-1.02.64-.26,1.37-.39,2.2-.39.93,0,1.78.15,2.54.45.77.29,1.44.72,2.01,1.29l-.55,1.07ZM33.43,115v1.83h-7.99v5.53h6.47v1.77h-6.47v5.69h7.99v1.84h-10.25v-16.65h10.25ZM52.98,130c.45,0,.86-.02,1.24-.06.38-.04.73-.1,1.06-.19.33-.09.65-.18.94-.3.29-.12.59-.25.88-.41v-3.68h-2.58c-.15,0-.26-.04-.35-.13-.09-.09-.14-.19-.14-.31v-1.28h5.11v6.4c-.42.3-.85.57-1.31.79-.45.22-.93.41-1.45.56-.52.15-1.07.26-1.66.34-.59.07-1.23.11-1.91.11-1.21,0-2.31-.21-3.32-.62-1.01-.41-1.87-1-2.6-1.74-.73-.75-1.29-1.64-1.7-2.69-.41-1.04-.61-2.19-.61-3.45s.2-2.43.6-3.47c.4-1.04.97-1.94,1.71-2.69.74-.75,1.63-1.33,2.68-1.74,1.05-.41,2.22-.62,3.52-.62.66,0,1.27.05,1.83.15.57.1,1.09.24,1.58.42.48.18.93.41,1.34.67.41.26.79.56,1.15.89l-.64,1.01c-.13.2-.3.31-.51.31-.12,0-.26-.04-.41-.13-.19-.11-.41-.24-.65-.4-.24-.15-.53-.3-.87-.45-.34-.14-.75-.26-1.22-.36-.47-.1-1.02-.15-1.67-.15-.94,0-1.79.15-2.54.46-.76.31-1.41.74-1.94,1.31-.54.57-.95,1.26-1.23,2.07-.29.81-.43,1.72-.43,2.72,0,1.05.15,1.99.45,2.82.3.82.72,1.52,1.26,2.1.54.57,1.18,1.01,1.93,1.31.74.3,1.56.45,2.46.45h0ZM77.96,129.86c.69,0,1.3-.12,1.85-.35.54-.23,1-.56,1.38-.97.37-.42.66-.92.86-1.5.2-.58.29-1.22.29-1.92v-10.11h2.24v10.12c0,.96-.15,1.85-.46,2.67-.31.82-.74,1.53-1.31,2.13-.57.6-1.27,1.07-2.09,1.41-.82.34-1.74.51-2.76.51s-1.94-.17-2.76-.51c-.82-.34-1.52-.81-2.09-1.41-.57-.6-1.01-1.31-1.32-2.13-.31-.82-.46-1.71-.46-2.67v-10.12h2.24v10.1c0,.7.1,1.34.3,1.92.2.58.48,1.08.86,1.5.38.42.84.74,1.38.98.54.24,1.16.36,1.85.36h0ZM99.8,124.7v6.96h-2.24v-16.66h4.7c1.05,0,1.96.11,2.73.32.77.21,1.4.52,1.9.92.5.4.87.89,1.11,1.46.24.57.36,1.21.36,1.91,0,.59-.09,1.14-.28,1.65-.19.51-.45.97-.8,1.38-.35.41-.78.75-1.29,1.04-.51.29-1.08.5-1.73.65.28.16.53.4.74.71l4.85,6.62h-2c-.41,0-.71-.16-.91-.48l-4.32-5.96c-.13-.19-.28-.32-.43-.4-.16-.08-.39-.12-.7-.12h-1.7ZM99.8,123.06h2.36c.66,0,1.24-.08,1.74-.24.5-.16.92-.38,1.25-.67.34-.29.59-.64.76-1.04.17-.4.26-.85.26-1.33,0-.99-.33-1.74-.98-2.24-.65-.5-1.63-.75-2.92-.75h-2.46v6.27ZM136.09,123.34c0,1.25-.2,2.39-.59,3.44-.39,1.04-.95,1.94-1.67,2.69-.72.75-1.58,1.34-2.59,1.75-1.01.41-2.13.62-3.35.62s-2.34-.21-3.34-.62c-1.01-.41-1.87-1-2.59-1.75-.72-.75-1.28-1.65-1.67-2.69-.39-1.04-.59-2.19-.59-3.44s.2-2.39.59-3.44c.4-1.04.95-1.94,1.67-2.7.72-.75,1.58-1.34,2.59-1.76,1-.42,2.12-.63,3.34-.63s2.34.21,3.35.63c1.01.42,1.87,1.01,2.59,1.76.72.76,1.28,1.66,1.67,2.7.4,1.04.59,2.19.59,3.44h0ZM133.78,123.34c0-1.02-.14-1.94-.42-2.76-.28-.82-.67-1.5-1.18-2.07-.51-.56-1.13-.99-1.86-1.29-.73-.3-1.54-.45-2.44-.45s-1.7.15-2.43.45c-.73.3-1.35.73-1.86,1.29-.51.57-.91,1.25-1.19,2.07-.28.81-.42,1.73-.42,2.76s.14,1.94.42,2.75c.28.81.68,1.5,1.19,2.06.52.56,1.14.99,1.86,1.29.73.3,1.54.45,2.43.45s1.71-.15,2.44-.45c.73-.3,1.35-.73,1.86-1.29.51-.57.91-1.25,1.18-2.06.28-.81.42-1.73.42-2.75h0ZM156.58,117.61c-.07.11-.14.2-.22.26-.08.06-.18.09-.3.09-.13,0-.28-.07-.45-.2-.18-.13-.4-.28-.66-.44-.27-.16-.59-.3-.96-.43-.38-.13-.83-.2-1.37-.2-.5,0-.95.07-1.34.2-.39.14-.71.32-.97.55-.26.23-.46.5-.59.82-.13.32-.2.66-.2,1.02,0,.46.11.85.34,1.15.23.31.53.57.91.79.38.22.8.4,1.28.56.48.16.96.33,1.46.5.5.17.99.36,1.46.57.48.21.9.48,1.28.81.38.32.68.72.91,1.2.23.47.34,1.05.34,1.74,0,.73-.12,1.41-.37,2.05-.25.64-.61,1.2-1.08,1.67-.48.47-1.06.84-1.75,1.12-.69.27-1.48.41-2.36.41-1.08,0-2.05-.2-2.94-.59-.89-.39-1.64-.92-2.27-1.59l.65-1.07c.06-.09.14-.16.23-.22.09-.06.19-.09.3-.09.16,0,.35.09.56.26.21.17.47.36.79.57.31.21.69.4,1.14.58.45.17.99.26,1.63.26.53,0,1.01-.07,1.43-.22.42-.15.77-.36,1.07-.62.29-.27.51-.59.66-.96.16-.37.23-.79.23-1.24,0-.5-.11-.92-.34-1.24-.23-.32-.53-.59-.9-.81-.37-.22-.79-.4-1.27-.55-.48-.15-.96-.3-1.46-.46-.5-.16-.99-.34-1.46-.55-.48-.21-.9-.48-1.27-.81-.37-.33-.67-.75-.9-1.25-.23-.5-.34-1.12-.34-1.85,0-.59.11-1.16.34-1.71.23-.55.56-1.04.99-1.46.43-.43.97-.77,1.61-1.02.64-.26,1.37-.39,2.2-.39.93,0,1.78.15,2.54.45.77.29,1.43.72,2.01,1.29l-.55,1.07ZM156.58,117.61"/>
  <g class="cls-11">
    <path class="cls-1" d="M157.07,95.84c.27,16.26-23.87,16.26-23.6,0-.25-16.3,23.85-16.3,23.6,0h0ZM153.75,95.84c.49-12.62-17.45-12.6-16.97,0-.49,12.56,17.47,12.57,16.97,0h0ZM153.75,95.84"/>
  </g>
  <g class="cls-9">
    <rect class="cls-1" x="1.06" y="83.85" width="3.24" height="23.95"/>
  </g>
  <g class="cls-10">
    <path class="cls-2" d="M10.51,117.61c-.71.99-1.66-.64-2.61-.72-2.21-.94-5.63,1.01-4.11,3.55,1.9,2.16,5.96,1.53,7.29,4.42,2.31,6.44-6.62,9.25-10.45,4.8.38-.55.88-1.97,1.73-1.11,2.38,2.63,8.48,1.36,6.6-2.87-1.19-1.52-3.45-1.54-5.1-2.37-6.99-4.32,1.56-12.07,7.18-6.76l-.55,1.07ZM33.43,115v1.83h-7.99v5.53h6.47v1.77h-6.47v5.69h7.99v1.84h-10.25v-16.65h10.25ZM52.98,130c1.48.02,2.84-.27,4.12-.96v-3.68c-.26-.05-2.79.13-2.93-.13-.26-.16-.09-1.34-.14-1.59h5.11v6.4c-7.6,5.18-17.27-1.06-13.96-10.18,1.87-5.43,9.78-6.66,13.81-2.92-1.32,2.77-2.03.16-4.3-.02-9.19-2.39-10.89,13.06-1.71,13.09ZM77.96,129.86c6.71.23,3.78-10.99,4.38-14.85h2.24c-.39,5.64,2.33,16.94-6.62,16.85-8.95.1-6.25-11.22-6.63-16.85h2.24c.6,3.9-2.33,15.05,4.39,14.85ZM99.8,124.71v6.96h-2.24v-16.66c2.71.14,7.16-.57,9.33,1.24,2.99,2.5,1.13,7.6-2.63,8.09.45,0,5.2,6.91,5.6,7.33-.68-.11-2.53.33-2.9-.48-.11-.07-4.7-6.68-4.75-6.36-.38-.23-1.94-.08-2.4-.12ZM99.8,123.06c2.49.14,6.45.12,6.36-3.28.1-3.38-3.89-3.01-6.36-2.99v6.27ZM136.09,123.34c.28,11.27-16.68,11.27-16.4,0-.27-11.3,16.67-11.29,16.4,0h0ZM133.78,123.34c.42-8.74-12.21-8.73-11.8,0-.41,8.7,12.22,8.71,11.8,0h0ZM156.58,117.61c-.71.99-1.66-.64-2.6-.72-2.21-.94-5.63,1.01-4.11,3.55,1.9,2.16,5.96,1.53,7.29,4.42,2.32,6.44-6.62,9.25-10.45,4.8.38-.55.88-1.97,1.73-1.11,2.38,2.63,8.48,1.37,6.6-2.87-1.19-1.52-3.45-1.54-5.1-2.37-7-4.32,1.56-12.07,7.18-6.76l-.55,1.07ZM156.58,117.61"/>
  </g>
  <path class="cls-5" d="M25.83.31H6c-1.56,0-2.91.62-3.94,1.66C1.02,3.01.4,4.36.4,5.92v64.55c0,1.56.62,3.01,1.66,3.94,1.04,1.04,2.39,1.66,3.94,1.66h19.82c1.56,0,2.91-.62,3.94-1.66,1.04-.93,1.66-2.39,1.66-3.94V5.92c0-1.56-.62-2.91-1.66-3.94-1.04-1.04-2.39-1.66-3.94-1.66h0ZM25.83.31"/>
  <path class="cls-6" d="M34.65,4.78c-.31-.21-.62-.41-.93-.52.1.52.21,1.14.21,1.66v19.51l19.72,14.43c2.49,1.87,5.5,3.53,8.41,4.78,2.8,1.14,5.4,1.87,7.16,1.87h19.72c.52,0,.83,0,1.04-.1,0-.11-.1-.31-.21-.62-.62-1.04-1.97-2.39-4.05-3.94L38.18,7.06c-1.14-.83-2.28-1.66-3.53-2.28h0ZM34.65,4.78"/>
  <path class="cls-6" d="M157.53,4.26c-.1.21-.31.41-.52.52-.73.73-1.56,1.45-2.59,2.18l-27.81,20.34v43.07c0,1.56.73,2.91,1.66,3.94,1.04,1.04,2.49,1.66,4.05,1.66h19.82c1.56,0,2.91-.62,3.94-1.66,1.04-1.04,1.66-2.39,1.66-3.94V5.81c0-.52-.1-1.04-.21-1.56Z"/>
  <path class="cls-8" d="M156.48,0h-19.72c-1.77,0-4.36.73-7.16,1.87-2.91,1.25-5.91,2.91-8.41,4.77l-39.33,28.85,5.6,4.05c2.18,1.66,3.63,3.12,4.46,4.36.42.73.73,1.35.73,1.87,1.45-.31,3.01-.83,4.67-1.56,2.91-1.25,5.92-2.91,8.41-4.67L153.26,4.67c2.07-1.56,3.42-2.91,4.05-3.94.1-.21.21-.42.21-.62-.21-.1-.52-.1-1.04-.1h0ZM156.48,0"/>
</svg>